<svg xmlns="http://www.w3.org/2000/svg" viewBox="0 0 512 512">
  <defs>
    <linearGradient id="bgGrad" x1="0%" y1="0%" x2="100%" y2="100%">
      <stop offset="0%" style="stop-color:#8B7355"/>
      <stop offset="50%" style="stop-color:#7A6548"/>
      <stop offset="100%" style="stop-color:#5D4E37"/>
    </linearGradient>
    <linearGradient id="pageGrad" x1="0%" y1="0%" x2="0%" y2="100%">
      <stop offset="0%" style="stop-color:#FFFBF5"/>
      <stop offset="100%" style="stop-color:#F5EDE3"/>
    </linearGradient>
    <linearGradient id="accentGrad" x1="0%" y1="0%" x2="100%" y2="100%">
      <stop offset="0%" style="stop-color:#D4A574"/>
      <stop offset="100%" style="stop-color:#B8956A"/>
    </linearGradient>
    <filter id="shadow" x="-20%" y="-20%" width="140%" height="140%">
      <feDropShadow dx="4" dy="8" stdDeviation="6" flood-opacity="0.25"/>
    </filter>
    <filter id="innerShadow">
      <feOffset dx="0" dy="2"/>
      <feGaussianBlur stdDeviation="2"/>
      <feComposite operator="out" in="SourceGraphic"/>
      <feColorMatrix values="0 0 0 0 0  0 0 0 0 0  0 0 0 0 0  0 0 0 0.15 0"/>
      <feBlend in="SourceGraphic"/>
    </filter>
  </defs>
  
  <!-- Background with subtle texture -->
  <rect width="512" height="512" rx="100" fill="url(#bgGrad)"/>
  
  <!-- Subtle shine overlay -->
  <ellipse cx="180" cy="140" rx="200" ry="120" fill="white" opacity="0.08"/>
  
  <!-- Stacked notes effect -->
  <!-- Back page 3 (farthest) -->
  <rect x="75" y="68" width="270" height="350" rx="16" fill="#C4B8A8" transform="rotate(-10 210 243)" filter="url(#shadow)"/>
  
  <!-- Back page 2 -->
  <rect x="88" y="74" width="270" height="350" rx="16" fill="#D4C8B8" transform="rotate(-5 223 249)" filter="url(#shadow)"/>
  
  <!-- Back page 1 -->
  <rect x="100" y="80" width="270" height="350" rx="16" fill="#E8DDD0" transform="rotate(-2 235 255)" filter="url(#shadow)"/>
  
  <!-- Front page -->
  <rect x="112" y="86" width="270" height="350" rx="16" fill="url(#pageGrad)" filter="url(#shadow)"/>
  
  <!-- Folded corner effect -->
  <path d="M 342 86 L 382 86 L 382 126 Z" fill="#E8DDD0"/>
  <path d="M 342 86 L 342 126 L 382 126 Z" fill="#D4C8B8"/>
  
  <!-- Page lines (ruled paper effect) -->
  <g stroke="#C4B8A8" stroke-width="4" stroke-linecap="round">
    <line x1="140" y1="140" x2="354" y2="140"/>
    <line x1="140" y1="175" x2="354" y2="175"/>
    <line x1="140" y1="210" x2="300" y2="210"/>
    <line x1="140" y1="245" x2="280" y2="245"/>
  </g>
  
  <!-- Red margin line -->
  <line x1="165" y1="120" x2="165" y2="420" stroke="#E8A5A5" stroke-width="2" opacity="0.6"/>
  
  <!-- Bold KK letters -->
  <text x="150" y="400" font-family="Arial Black, Helvetica, sans-serif" font-size="145" font-weight="900" fill="url(#bgGrad)" letter-spacing="-8" filter="url(#innerShadow)">KK</text>
  
  <!-- Graduation cap icon (top right) - symbolizing KTU/education -->
  <g transform="translate(350, 50)">
    <polygon points="60,40 120,20 60,0 0,20" fill="url(#accentGrad)"/>
    <rect x="50" y="40" width="20" height="32" fill="url(#accentGrad)"/>
    <line x1="100" y1="28" x2="120" y2="68" stroke="url(#accentGrad)" stroke-width="6" stroke-linecap="round"/>
    <circle cx="120" cy="76" r="10" fill="url(#accentGrad)"/>
  </g>
  
  <!-- Pen/pencil accent (bottom right) -->
  <g transform="translate(388, 370) rotate(45)">
    <rect x="0" y="0" width="16" height="75" rx="3" fill="url(#accentGrad)"/>
    <polygon points="0,75 8,95 16,75" fill="url(#accentGrad)"/>
    <rect x="0" y="0" width="16" height="12" rx="3" fill="#5D4E37"/>
  </g>
  
  <!-- Small decorative dots -->
  <circle cx="420" cy="160" r="8" fill="url(#accentGrad)" opacity="0.6"/>
  <circle cx="445" cy="200" r="5" fill="url(#accentGrad)" opacity="0.4"/>
</svg>
